<?xml version="1.0" standalone="no"?>
<!DOCTYPE svg PUBLIC "-//W3C//DTD SVG 20010904//EN"
 "http://www.w3.org/TR/2001/REC-SVG-20010904/DTD/svg10.dtd">
<svg version="1.0" xmlns="http://www.w3.org/2000/svg"
 width="1944.000000pt" height="1944.000000pt" viewBox="0 0 1944.000000 1944.000000"
 preserveAspectRatio="xMidYMid meet">
<metadata>
Created by potrace 1.14, written by Peter Selinger 2001-2017
</metadata>
<g transform="translate(0.000000,1944.000000) scale(0.100000,-0.100000)"
fill="#000000" stroke="none">
<path d="M5862 13589 c-13 -5 -38 -11 -55 -14 -16 -3 -33 -8 -37 -10 -4 -2
-20 -7 -36 -10 -16 -3 -180 -44 -364 -90 -184 -47 -344 -88 -355 -90 -11 -3
-76 -19 -144 -36 -68 -17 -129 -32 -135 -33 -6 -1 -20 -5 -31 -9 -11 -3 -31
-8 -45 -11 -14 -3 -61 -15 -105 -27 -44 -11 -87 -22 -95 -24 -8 -2 -71 -18
-140 -35 -69 -18 -141 -36 -160 -40 -19 -4 -91 -22 -160 -40 -69 -18 -132 -33
-140 -35 -8 -2 -69 -17 -135 -35 -66 -17 -129 -33 -140 -35 -19 -4 -73 -17
-85 -20 -3 -1 -23 -6 -45 -13 -22 -6 -51 -13 -65 -16 -14 -2 -79 -19 -145 -36
-66 -18 -131 -34 -144 -37 -14 -2 -57 -13 -97 -24 -40 -11 -82 -22 -94 -24
-11 -3 -29 -7 -41 -10 -11 -2 -29 -7 -39 -10 -10 -3 -28 -8 -39 -10 -42 -10
-59 -14 -240 -60 -101 -26 -191 -48 -200 -50 -9 -2 -59 -15 -111 -29 -53 -14
-107 -27 -120 -30 -14 -2 -122 -29 -240 -60 -118 -30 -226 -57 -240 -60 -14
-3 -43 -10 -65 -16 -22 -6 -47 -13 -55 -14 -8 -2 -22 -6 -30 -9 -8 -3 -58 -15
-110 -27 -52 -12 -102 -24 -110 -27 -21 -9 -97 -25 -102 -23 -2 1 -15 -3 -31
-9 -28 -11 -48 -16 -102 -27 -16 -3 -37 -8 -45 -11 -8 -3 -22 -7 -30 -9 -8 -2
-60 -15 -115 -29 -55 -14 -108 -28 -117 -30 -9 -2 -88 -22 -176 -44 -87 -22
-167 -42 -178 -44 -10 -2 -39 -9 -64 -16 -25 -7 -52 -14 -60 -16 -8 -2 -62
-15 -120 -30 -58 -15 -111 -28 -117 -28 -10 0 -13 -63 -13 -278 l0 -277 38 9
c60 15 62 16 172 44 58 14 116 28 130 31 14 2 32 7 40 10 13 5 187 50 230 59
8 2 142 35 296 74 155 40 290 74 300 76 11 2 57 14 104 26 47 11 93 23 103 25
26 6 46 11 109 28 32 9 72 18 89 21 18 3 41 11 53 17 11 6 21 10 21 8 0 -2 23
2 51 9 29 7 58 14 65 15 8 2 21 6 29 9 8 3 44 12 80 20 36 9 155 38 265 66
110 28 211 54 225 56 14 3 32 8 40 12 8 3 24 7 36 8 11 2 40 9 65 15 24 7 51
14 59 15 8 2 30 8 48 14 18 5 35 10 37 10 3 1 7 2 10 2 7 2 16 4 60 14 47 10
54 12 58 15 1 1 9 3 17 5 8 2 80 20 160 40 80 20 154 38 165 41 10 2 82 20
160 40 77 20 149 37 160 39 11 1 32 8 48 14 15 6 27 8 27 5 0 -2 8 0 18 5 9 5
34 12 56 15 21 4 41 8 45 11 4 2 18 6 32 8 13 3 78 19 144 36 66 17 129 33
140 36 11 2 47 11 80 20 33 8 67 17 75 19 8 2 42 11 75 19 33 9 71 18 85 21
14 3 50 12 80 21 30 9 64 17 75 19 11 2 49 11 85 21 36 9 72 18 80 20 8 2 53
13 100 25 47 12 93 24 103 26 10 2 28 6 40 10 12 4 29 9 37 10 27 4 145 34
160 41 8 3 22 7 30 8 23 4 56 12 170 41 58 14 112 27 120 29 8 1 22 5 30 8 15
5 87 24 125 32 11 2 101 25 200 50 99 25 187 42 195 39 8 -4 24 -9 35 -11 25
-4 169 -39 250 -59 33 -9 79 -20 103 -25 24 -5 47 -11 52 -14 5 -3 21 -7 37
-9 15 -3 57 -12 93 -21 36 -9 73 -18 83 -21 9 -2 25 -6 35 -8 9 -3 46 -12 82
-21 36 -9 74 -18 86 -20 11 -3 94 -23 185 -46 180 -45 189 -47 222 -54 12 -3
51 -12 87 -21 36 -9 72 -18 80 -19 8 -2 15 -4 15 -5 0 -1 9 -3 20 -5 11 -2 38
-8 60 -14 42 -11 124 -29 164 -37 14 -3 28 -7 33 -10 5 -3 20 -7 34 -10 14 -3
71 -16 127 -30 56 -14 109 -27 117 -28 8 -2 35 -10 60 -17 25 -7 54 -14 65
-15 11 -1 47 -10 80 -19 33 -9 67 -17 75 -19 8 -1 26 -5 40 -9 38 -10 543
-133 581 -142 11 -2 29 -7 39 -10 10 -3 29 -8 42 -10 13 -2 41 -9 63 -14 22
-5 54 -13 70 -17 17 -4 35 -8 40 -10 6 -2 19 -5 30 -8 11 -2 40 -9 65 -16 25
-6 54 -13 65 -15 11 -2 101 -24 200 -48 201 -51 342 -85 413 -101 9 -2 80 -20
157 -39 77 -20 151 -38 165 -41 14 -3 54 -12 90 -21 35 -9 71 -17 80 -19 8 -2
22 -6 30 -9 15 -5 137 -35 175 -43 55 -10 122 -27 143 -35 13 -5 33 -9 46 -9
12 0 26 -3 30 -7 4 -5 11 -8 14 -9 4 0 27 -4 52 -9 25 -5 48 -8 53 -7 4 1 7
-3 7 -9 0 -5 4 -8 9 -5 4 3 23 1 42 -5 19 -6 45 -12 59 -15 14 -3 79 -19 145
-35 66 -17 131 -33 145 -35 14 -3 46 -11 73 -19 26 -8 48 -14 50 -14 4 1 44
-9 402 -97 193 -47 361 -88 375 -91 35 -7 40 -8 85 -21 22 -6 51 -13 65 -16
14 -2 61 -13 106 -25 45 -11 92 -23 105 -25 13 -3 25 -5 27 -7 2 -2 2 -2 57
-14 59 -12 56 -12 105 -25 25 -7 53 -14 62 -16 37 -8 55 -13 143 -35 50 -12
96 -22 103 -22 6 0 12 -4 12 -9 0 -5 4 -7 9 -4 4 3 32 -1 62 -9 231 -60 109
-55 1330 -55 625 0 1108 4 1105 9 -3 5 -18 11 -33 14 -25 5 -70 14 -98 21 -5
2 -23 6 -40 10 -16 4 -57 14 -90 23 -55 14 -90 22 -154 37 -13 3 -61 15 -106
26 -99 25 -124 31 -150 35 -11 2 -54 12 -95 23 -41 12 -86 23 -100 26 -14 3
-52 12 -85 21 -33 8 -69 17 -80 19 -11 2 -40 9 -65 16 -25 7 -56 14 -70 16
-14 3 -38 9 -55 14 -16 5 -41 11 -55 14 -38 8 -60 13 -130 31 -36 9 -72 18
-80 20 -8 2 -72 17 -141 34 -69 17 -134 34 -145 36 -10 2 -37 9 -59 15 -22 5
-56 13 -75 16 -19 3 -39 9 -44 12 -5 3 -28 9 -50 14 -63 13 -72 15 -313 75
-126 31 -234 56 -240 56 -7 0 -13 3 -13 7 0 3 -10 6 -22 6 -13 1 -79 15 -148
33 -69 18 -136 34 -150 37 -14 3 -113 27 -220 54 -107 27 -206 51 -220 54 -40
9 -103 24 -130 31 -14 3 -36 8 -49 11 -14 3 -28 7 -31 9 -4 2 -21 7 -39 10
-17 3 -57 12 -89 21 -31 8 -64 17 -72 19 -19 4 -350 85 -370 90 -14 3 -98 23
-130 30 -8 2 -53 13 -100 25 -47 11 -96 23 -110 26 -14 2 -32 7 -40 10 -8 3
-26 8 -40 11 -14 2 -56 13 -95 23 -67 18 -107 27 -150 35 -11 2 -45 11 -77 19
-31 8 -69 18 -85 21 -35 7 -43 10 -68 18 -11 3 -31 8 -45 11 -44 9 -71 15 -90
21 -10 3 -28 8 -39 10 -12 3 -30 7 -42 10 -11 2 -28 6 -37 9 -9 3 -28 7 -42
10 -30 6 -33 7 -185 45 -176 44 -497 122 -521 127 -11 2 -56 13 -100 24 -43
12 -90 23 -104 26 -14 3 -86 20 -160 39 -74 19 -146 36 -160 39 -14 3 -42 10
-62 15 -21 5 -38 7 -38 4 0 -3 -6 -1 -12 5 -7 5 -29 13 -48 16 -40 8 -65 14
-65 16 0 1 -9 3 -20 5 -11 1 -40 8 -65 14 -25 6 -56 14 -70 17 -14 3 -43 10
-65 16 -22 5 -47 12 -55 14 -121 29 -185 45 -232 57 -32 8 -58 13 -58 10 0 -2
-9 1 -19 7 -11 5 -37 13 -58 16 -21 3 -41 8 -45 10 -4 2 -28 9 -55 14 -82 17
-95 20 -193 47 -52 14 -103 26 -112 25 -10 0 -18 4 -18 9 0 6 -4 8 -8 5 -5 -3
-60 8 -123 25 -63 16 -125 31 -139 34 -14 3 -61 14 -105 25 -44 12 -90 23
-103 26 -13 2 -60 14 -105 25 -45 11 -91 22 -102 24 -30 6 -49 10 -185 45 -69
18 -133 34 -142 36 -29 7 -47 11 -163 39 -60 14 -118 28 -128 30 -10 2 -27 7
-37 10 -10 3 -27 8 -37 10 -16 3 -86 20 -123 29 -17 5 -108 26 -130 31 -8 2
-51 12 -96 24 -107 27 -144 32 -172 20z"/>
<path d="M13320 13579 c-41 -11 -79 -21 -85 -22 -5 -2 -16 -6 -22 -10 -7 -5
-13 -6 -13 -3 0 2 -15 0 -32 -5 -18 -5 -44 -12 -58 -14 -14 -2 -108 -25 -210
-51 -102 -25 -193 -48 -203 -50 -10 -2 -27 -6 -37 -9 -10 -3 -28 -8 -39 -10
-42 -10 -57 -13 -121 -30 -36 -9 -74 -19 -86 -21 -11 -2 -65 -15 -120 -29 -54
-14 -115 -28 -134 -31 -19 -3 -42 -10 -50 -14 -8 -4 -17 -8 -20 -7 -3 0 -28
-5 -56 -12 -29 -7 -58 -13 -65 -15 -8 -1 -23 -5 -34 -9 -11 -3 -31 -8 -45 -11
-14 -3 -108 -26 -208 -51 -101 -24 -194 -47 -205 -49 -12 -3 -50 -12 -84 -21
-35 -9 -72 -18 -83 -21 -33 -7 -49 -11 -200 -49 -156 -39 -171 -43 -212 -50
-15 -3 -38 -9 -52 -15 -15 -5 -26 -7 -26 -4 0 4 -7 1 -15 -6 -8 -7 -15 -10
-15 -7 0 3 -24 -1 -52 -9 -29 -8 -64 -17 -78 -19 -14 -2 -36 -8 -50 -13 -14
-5 -27 -9 -30 -9 -14 2 -286 -67 -293 -75 -4 -4 -4 -6 -1 -3 4 3 12 1 18 -4 6
-5 27 -11 46 -14 38 -6 59 -11 108 -26 17 -5 32 -7 32 -4 0 3 6 1 13 -4 6 -6
19 -11 27 -11 8 0 33 -6 55 -12 38 -10 50 -13 100 -24 11 -3 35 -9 53 -15 17
-5 32 -7 32 -4 0 3 7 0 15 -7 9 -7 18 -10 22 -7 3 3 21 0 41 -9 19 -8 37 -12
40 -10 2 3 20 -1 40 -10 19 -8 37 -12 40 -10 2 3 16 0 31 -6 24 -10 77 -23
126 -33 11 -2 65 -15 120 -30 116 -31 143 -33 210 -12 11 3 34 9 50 12 38 8
60 13 60 15 0 1 11 4 25 6 14 3 43 9 65 15 22 6 49 13 60 16 11 2 25 5 30 7 6
2 28 7 50 11 55 12 54 12 60 15 3 1 8 3 13 4 24 6 70 17 87 21 11 2 49 12 85
20 36 9 73 18 83 20 10 2 26 6 35 9 9 3 28 7 42 10 40 8 62 13 110 26 25 7 52
14 60 15 8 2 71 18 140 35 69 17 136 33 150 36 14 3 43 10 65 16 22 5 47 11
55 13 8 2 42 10 75 18 33 9 71 18 85 21 14 2 61 14 106 25 45 12 91 23 103 26
11 2 48 11 82 19 33 9 73 18 87 21 15 2 42 9 60 14 18 5 40 8 50 6 9 -2 64
-16 122 -30 58 -15 112 -28 120 -30 8 -2 116 -29 240 -60 124 -31 232 -58 240
-60 8 -2 33 -8 55 -13 22 -6 51 -13 65 -16 14 -3 61 -15 105 -27 44 -11 87
-22 95 -24 8 -2 107 -26 219 -54 112 -28 213 -53 225 -56 11 -2 102 -25 201
-50 99 -26 187 -48 195 -50 8 -2 56 -13 105 -26 50 -12 97 -23 105 -24 8 -1
22 -5 30 -8 13 -5 52 -15 85 -22 6 -2 66 -17 135 -35 69 -17 133 -33 142 -35
14 -3 265 -64 333 -81 11 -3 80 -20 153 -39 74 -19 144 -37 155 -40 12 -2 69
-16 127 -30 58 -15 112 -28 120 -30 8 -2 87 -22 175 -45 88 -22 169 -42 180
-44 11 -2 27 -7 35 -10 8 -3 29 -8 45 -11 37 -7 59 -13 63 -15 2 -3 2 -3 57
-15 22 -4 45 -9 50 -11 18 -5 60 -16 100 -25 22 -6 58 -14 80 -20 22 -5 49
-12 60 -14 11 -2 20 -4 20 -5 0 -2 17 -7 70 -19 22 -5 60 -15 85 -21 25 -7 50
-13 55 -14 6 -1 19 -5 30 -9 11 -3 31 -8 45 -11 14 -3 36 -8 50 -11 14 -4 34
-8 45 -10 11 -2 21 -4 23 -5 3 -3 28 -10 122 -32 25 -5 52 -12 60 -16 8 -3 26
-7 40 -9 14 -2 48 -11 76 -19 28 -8 61 -17 73 -19 13 -2 31 -7 41 -10 10 -3
28 -8 39 -10 12 -3 31 -7 44 -11 12 -3 33 -7 46 -10 14 -3 28 -7 32 -9 4 -3
24 -7 45 -11 22 -3 47 -10 56 -15 9 -5 21 -9 25 -8 4 1 11 0 16 -1 9 -3 14 -4
57 -14 19 -4 49 -12 65 -17 35 -10 149 -38 185 -45 14 -3 34 -8 45 -11 11 -4
25 -8 30 -9 35 -9 63 -16 85 -20 14 -3 34 -8 45 -11 22 -7 30 -10 60 -16 20
-5 20 0 20 269 l0 274 -30 9 c-47 15 -141 39 -180 46 -23 5 -39 9 -120 31 -33
9 -67 17 -75 19 -8 2 -42 10 -75 18 -33 9 -71 18 -85 21 -14 2 -36 9 -50 14
-14 5 -28 10 -33 10 -6 1 -70 13 -89 18 -5 1 -9 2 -10 4 -2 1 -10 3 -18 5 -8
1 -71 17 -140 35 -69 17 -132 33 -140 35 -8 2 -35 8 -60 15 -25 6 -58 13 -75
16 -16 3 -37 9 -45 14 -8 4 -23 6 -32 5 -10 -2 -18 0 -18 4 0 4 -6 8 -12 8 -7
0 -89 19 -183 43 -93 23 -180 44 -192 46 -12 2 -35 9 -50 15 -16 6 -29 10 -30
10 -2 -1 -4 -1 -5 0 -2 0 -10 2 -18 4 -27 5 -154 35 -190 45 -19 5 -45 12 -57
15 -12 3 -30 8 -40 10 -10 3 -56 14 -103 26 -47 11 -92 22 -100 24 -8 2 -16 4
-17 5 -3 3 -2 2 -58 15 -22 5 -42 9 -45 10 -21 7 -60 17 -76 20 -10 2 -19 4
-19 5 0 1 -11 4 -25 6 -14 3 -43 9 -65 15 -22 6 -48 13 -57 15 -10 2 -28 7
-40 10 -42 11 -103 25 -123 29 -11 2 -20 4 -20 5 0 2 -17 7 -70 19 -22 5 -60
15 -85 21 -25 6 -53 14 -62 16 -10 2 -28 7 -40 10 -13 3 -40 10 -60 15 -21 5
-56 14 -78 19 -22 6 -59 15 -82 20 -24 6 -59 15 -78 20 -19 5 -71 18 -115 29
-44 11 -96 24 -115 29 -19 5 -37 9 -40 10 -3 0 -12 3 -20 6 -8 2 -28 7 -45 11
-16 3 -48 10 -70 16 -22 5 -58 14 -80 20 -22 5 -57 14 -77 19 -21 6 -55 14
-75 19 -21 5 -76 19 -123 31 -47 12 -103 25 -125 30 -22 6 -58 14 -80 20 -22
6 -47 12 -55 14 -41 10 -109 27 -140 36 -19 5 -57 14 -85 20 -27 7 -61 16 -75
21 -14 4 -41 11 -60 14 -38 6 -65 13 -65 15 0 2 -26 8 -65 16 -19 3 -43 10
-52 15 -10 5 -18 8 -18 5 0 -3 -15 0 -32 5 -18 6 -42 12 -53 14 -11 3 -94 23
-184 46 -90 23 -171 43 -180 44 -9 2 -16 4 -16 5 0 1 -9 3 -20 5 -11 2 -65 16
-120 30 -55 15 -113 28 -128 31 -15 2 -37 8 -47 14 -11 6 -20 9 -20 6 0 -3
-15 0 -32 5 -18 6 -44 12 -58 15 -14 3 -34 8 -45 11 -64 21 -109 21 -185 2z"/>
<path d="M1991 10175 c-3 -5 -6 -975 -5 -2155 l0 -2145 524 0 524 0 0 903 c0
496 3 902 6 903 3 0 145 1 317 2 171 1 314 5 318 9 9 9 10 201 1 216 -4 7 -4
12 1 12 4 0 8 25 8 55 0 30 -2 55 -5 55 -3 0 -5 18 -5 40 0 22 3 40 6 40 7 0
3 56 -6 69 -3 6 -3 11 2 11 4 0 8 40 8 90 0 49 -3 90 -7 90 -4 0 -3 14 2 30 5
18 5 30 0 30 -6 0 -6 10 -1 23 19 50 16 51 -326 51 l-318 1 -1 408 c0 225 3
410 7 413 4 2 10 0 13 -5 4 -5 18 -6 34 -2 23 6 76 7 92 1 3 -1 10 -1 15 0 13
2 207 2 220 0 25 -5 41 -5 51 2 6 4 24 4 42 -1 17 -5 33 -7 36 -4 5 5 159 8
181 3 36 -8 37 -3 35 220 -1 47 -1 92 -1 100 0 15 0 215 0 235 0 6 0 46 1 90
0 44 0 112 0 150 l-1 70 -880 0 c-576 0 -883 -3 -888 -10z"/>
<path d="M3984 8030 l1 -2155 468 -2 c352 -1 467 1 468 10 1 7 2 444 3 972 l1
960 40 -1 c133 -5 199 -48 221 -144 21 -96 24 -205 24 -1032 l1 -766 437 1
437 2 1 770 c0 424 -1 774 -4 778 -2 5 -6 49 -8 97 -4 109 -29 214 -64 270 -9
14 -25 42 -35 63 -27 51 -155 183 -155 159 0 -4 -4 -2 -8 4 -8 13 -121 66
-177 84 -52 16 -61 25 -27 28 106 9 251 71 313 134 64 65 69 73 96 151 25 72
29 85 38 147 3 20 7 47 10 60 25 128 24 648 -1 763 -3 12 -6 41 -8 63 -2 23
-8 57 -14 75 -6 19 -13 45 -15 59 -2 14 -7 33 -11 42 -4 9 -9 22 -10 30 -9 41
-42 108 -95 193 -44 71 -172 205 -196 205 -7 0 -15 4 -17 8 -6 14 -98 52 -166
68 -186 44 -399 55 -1078 57 l-472 2 2 -2155z m1051 1405 c77 -15 130 -54 147
-108 24 -82 28 -122 28 -347 2 -415 -24 -473 -215 -487 l-70 -5 0 473 c-1 314
3 477 10 481 10 8 24 7 100 -7z"/>
<path d="M7468 10185 c-2 -1 -43 -5 -91 -9 -84 -7 -260 -45 -302 -66 -27 -13
-79 -32 -84 -30 -2 1 -7 -2 -10 -7 -3 -4 -22 -16 -41 -27 -105 -57 -280 -203
-280 -234 0 -7 -4 -12 -8 -12 -19 0 -152 -240 -152 -274 0 -9 -5 -16 -12 -16
-6 0 -9 -3 -6 -6 3 -3 2 -21 -4 -41 -33 -120 -45 -222 -53 -458 -6 -154 -6
-1725 0 -1865 13 -344 57 -598 131 -757 36 -77 164 -254 164 -226 0 4 7 -2 15
-15 19 -26 119 -98 196 -139 100 -55 256 -100 409 -121 114 -15 379 -5 480 18
57 13 183 53 190 60 3 3 28 15 55 28 46 22 114 63 142 87 6 6 26 21 44 35 160
123 290 329 323 513 2 15 7 35 10 45 6 20 20 130 31 242 14 145 26 684 15 698
-3 4 -213 8 -467 7 -407 0 -463 -2 -464 -15 0 -8 -2 -188 -4 -400 -4 -406 -6
-433 -30 -530 -2 -8 -4 -18 -4 -22 -2 -14 -64 -68 -80 -69 -9 -1 -32 -3 -51
-4 -52 -5 -113 28 -134 71 -9 20 -14 39 -12 42 3 3 2 10 -4 17 -19 22 -22 215
-23 1305 0 1219 2 1317 40 1397 40 86 192 104 247 30 46 -63 49 -106 50 -683
l1 -461 465 0 c256 -1 467 3 470 7 9 15 0 815 -10 815 0 0 -3 23 -5 50 -8 82
-15 148 -19 175 -15 84 -31 155 -51 220 -49 160 -188 331 -360 445 -116 77
-235 125 -370 151 -22 4 -47 9 -55 11 -37 8 -286 23 -292 18z"/>
<path d="M11075 10180 c-1 -3 -3 -973 -3 -2157 l0 -2152 443 -1 443 0 0 2155
c0 1629 -3 2155 -11 2156 -40 4 -869 3 -872 -1z"/>
<path d="M12300 10182 c-7 -3 -10 -730 -10 -2157 l0 -2154 410 1 c266 0 412 4
416 10 4 6 6 72 5 147 -1 75 -2 142 -2 149 1 6 1 31 2 55 1 23 0 47 -1 52 -1
6 -1 15 0 20 2 13 2 87 0 100 -1 6 -2 12 -1 15 6 16 5 110 -1 110 -4 0 -5 6
-2 14 8 22 10 386 2 386 -4 0 -5 6 -2 14 8 21 10 106 2 106 -4 0 -5 7 -2 15 9
22 10 105 2 105 -4 0 -4 9 0 21 4 11 5 45 2 75 -3 30 -4 54 -1 54 5 0 5 137 0
150 -1 3 0 10 1 15 4 18 1 275 -3 282 -3 5 -1 17 4 28 6 17 8 17 8 3 1 -10 0
-19 -1 -20 -1 -2 4 -12 10 -24 6 -11 13 -32 16 -45 3 -13 10 -44 17 -69 6 -25
12 -52 14 -60 2 -8 4 -15 5 -15 1 0 3 -7 5 -15 1 -8 8 -35 16 -60 7 -25 14
-52 15 -60 2 -8 8 -32 13 -52 6 -21 16 -55 22 -75 5 -21 11 -45 13 -53 1 -8 9
-40 18 -70 17 -58 75 -281 83 -315 2 -11 14 -54 25 -95 12 -41 23 -86 26 -100
3 -14 8 -34 11 -45 4 -11 8 -24 9 -30 7 -28 89 -337 105 -395 5 -19 11 -42 13
-50 2 -8 14 -53 26 -100 12 -47 24 -94 27 -105 2 -11 5 -24 6 -30 11 -46 -6
-44 452 -42 l430 2 1 2152 c0 1523 -3 2153 -10 2156 -6 2 -193 3 -415 2 l-405
0 0 -958 c0 -526 -3 -957 -6 -957 -4 0 -7 6 -7 13 0 6 -10 46 -22 87 -12 41
-24 84 -27 96 -2 12 -10 40 -18 63 -9 22 -12 41 -9 41 4 0 2 5 -5 12 -7 7 -12
24 -12 38 0 14 -4 30 -9 36 -6 5 -12 24 -16 42 -3 18 -12 51 -19 75 -12 36
-32 106 -41 142 -1 6 -5 17 -8 25 -3 8 -17 56 -31 105 -13 50 -34 124 -46 165
-20 67 -46 161 -69 245 -13 47 -98 342 -121 420 -41 138 -59 201 -71 245 -7
25 -16 49 -21 55 -8 9 -792 15 -818 7z"/>
<path d="M15747 10184 c-1 -1 -31 -5 -67 -8 -61 -5 -81 -8 -137 -21 -13 -3
-33 -7 -45 -10 -155 -34 -344 -140 -463 -260 -69 -68 -135 -153 -135 -173 0
-6 -4 -12 -8 -14 -8 -3 -58 -102 -62 -123 -1 -5 -10 -26 -20 -45 -21 -43 -44
-134 -55 -225 -23 -186 -26 -350 -26 -1250 0 -791 3 -972 16 -1102 3 -32 8
-83 11 -113 3 -30 7 -62 9 -70 2 -8 6 -33 9 -55 2 -22 7 -53 11 -70 13 -62 27
-121 32 -135 4 -8 7 -22 9 -30 9 -43 74 -169 122 -232 134 -179 379 -319 612
-352 25 -3 68 -10 95 -14 62 -9 321 -7 395 3 30 4 63 11 73 17 10 5 21 7 24 5
17 -18 319 117 353 158 7 8 16 15 21 15 5 0 17 8 27 18 10 9 38 35 62 57 41
36 82 82 134 145 52 64 125 233 141 325 2 17 7 39 9 50 30 156 48 416 50 750
l1 190 -467 0 c-309 0 -468 -3 -469 -10 0 -5 -2 -179 -4 -385 -5 -541 -12
-588 -101 -632 -39 -20 -111 -17 -151 7 -33 19 -65 76 -69 123 -2 15 -6 59
-10 97 -4 39 -7 567 -7 1175 0 984 4 1309 17 1352 2 7 7 25 10 39 12 54 70 99
134 101 62 3 101 -11 126 -45 29 -39 33 -54 41 -137 4 -35 8 -67 11 -71 2 -4
0 -10 -6 -14 -6 -4 -7 -12 -3 -18 5 -7 8 -212 9 -457 l0 -445 470 0 469 0 -1
280 c-1 267 -15 636 -24 655 -2 3 -4 16 -5 30 -6 95 -48 271 -85 360 -84 200
-292 394 -515 480 -66 26 -138 46 -240 66 -55 11 -320 25 -328 18z"/>
<path d="M17169 6745 c-1 -5 -2 -205 -3 -443 l-1 -432 444 2 444 3 1 440 1
441 -442 0 c-300 0 -443 -4 -444 -11z"/>
</g>
</svg>
