<svg width="200" height="80" viewBox="0 0 200 80" fill="none" xmlns="http://www.w3.org/2000/svg">
<path d="M0.429688 15.4971V21.1667L61.0935 5.85897L137.632 24.5684H160.877L61.0935 0.189453L0.429688 15.4971Z" fill="#FF891F"/>
<path d="M117.222 10.9615L105.883 8.12678L138.199 0.189453L199.43 15.4971V21.1667L138.199 5.85897L117.222 10.9615Z" fill="#FF891F"/>
<path d="M174.461 54.8074H164.831V47.3889C164.831 45.2317 164.724 43.8901 164.511 43.364C164.313 42.8203 163.863 42.5485 163.162 42.5485C162.369 42.5485 161.865 42.8729 161.652 43.5218C161.438 44.1707 161.332 45.5737 161.332 47.7309V67.5134C161.332 69.5829 161.438 70.9333 161.652 71.5647C161.865 72.196 162.346 72.5117 163.093 72.5117C163.81 72.5117 164.275 72.196 164.488 71.5647C164.717 70.9333 164.831 69.4514 164.831 67.1188V61.7786H174.461V63.4359C174.461 67.8379 174.186 70.9596 173.637 72.8011C173.104 74.6425 171.907 76.256 170.046 77.6415C168.201 79.027 165.922 79.7197 163.207 79.7197C160.386 79.7197 158.061 79.1322 156.231 77.9572C154.401 76.7821 153.189 75.1599 152.594 73.0905C151.999 71.0035 151.702 67.873 151.702 63.699V51.256C151.702 48.1869 151.794 45.8894 151.977 44.3636C152.16 42.8203 152.701 41.3384 153.601 39.9178C154.516 38.4972 155.774 37.3836 157.375 36.5769C158.991 35.7526 160.844 35.3405 162.933 35.3405C165.769 35.3405 168.11 35.9718 169.955 37.2345C171.8 38.4972 173.012 40.0756 173.592 41.9697C174.171 43.8463 174.461 46.7751 174.461 50.7561V54.8074Z" fill="white"/>
<path d="M149.427 35.3405V79.7197H140.493L135.19 59.5448V79.7197H126.668V35.3405H135.19L140.904 55.3235V35.3405H149.427Z" fill="white"/>
<path d="M123.254 35.3405V79.7197H114.15V35.3405H123.254Z" fill="white"/>
<rect x="176.736" y="70.6163" width="9.10344" height="9.10344" fill="white"/>
<path d="M89.116 54.8074H79.4865V47.3889C79.4865 45.2317 79.3798 43.8901 79.1663 43.364C78.9681 42.8203 78.5182 42.5485 77.8168 42.5485C77.0238 42.5485 76.5206 42.8729 76.3072 43.5218C76.0937 44.1707 75.9869 45.5737 75.9869 47.7309V67.5134C75.9869 69.5829 76.0937 70.9333 76.3072 71.5647C76.5206 72.196 77.001 72.5117 77.7482 72.5117C78.4648 72.5117 78.9299 72.196 79.1434 71.5647C79.3721 70.9333 79.4865 69.4514 79.4865 67.1188V61.7786H89.116V63.4359C89.116 67.8379 88.8415 70.9596 88.2926 72.8011C87.7589 74.6425 86.5619 76.256 84.7015 77.6415C82.8564 79.027 80.5768 79.7197 77.8625 79.7197C75.0415 79.7197 72.7161 79.1322 70.8863 77.9572C69.0564 76.7821 67.8442 75.1599 67.2495 73.0905C66.6548 71.0035 66.3574 67.873 66.3574 63.699V51.256C66.3574 48.1869 66.4489 45.8894 66.6319 44.3636C66.8149 42.8203 67.3562 41.3384 68.2559 39.9178C69.1708 38.4972 70.4288 37.3836 72.0299 36.5769C73.6463 35.7526 75.499 35.3405 77.588 35.3405C80.4243 35.3405 82.765 35.9718 84.61 37.2345C86.4551 38.4972 87.6674 40.0756 88.2468 41.9697C88.8263 43.8463 89.116 46.7751 89.116 50.7561V54.8074Z" fill="white"/>
<path d="M41.3223 35.3405H48.1765C52.746 35.3405 55.8357 35.5506 57.4458 35.9709C59.0711 36.3912 60.3899 37.4694 61.4019 39.2055C62.4292 40.9233 62.9429 43.6736 62.9429 47.4563C62.9429 50.9102 62.5826 53.231 61.8619 54.4189C61.1412 55.6067 59.7228 56.3194 57.6068 56.557C59.5235 57.1235 60.8115 57.8819 61.4709 58.8321C62.1302 59.7824 62.5366 60.6596 62.6899 61.4636C62.8586 62.2494 62.9429 64.4332 62.9429 68.015V79.7197H53.9497V64.9723C53.9497 62.5967 53.7886 61.1256 53.4666 60.5591C53.16 59.9926 52.3396 59.7093 51.0056 59.7093V79.7197H41.3223V35.3405ZM51.0056 42.9334V52.8016C52.0943 52.8016 52.8533 52.628 53.2826 52.2808C53.7273 51.9153 53.9497 50.7549 53.9497 48.7995V46.3599C53.9497 44.9528 53.735 44.0299 53.3056 43.5913C52.8916 43.1527 52.1249 42.9334 51.0056 42.9334Z" fill="white"/>
<path d="M20.8398 35.3405H39.0467V44.2218H31.5903V52.6371H38.2296V61.0799H31.5903V79.7197H20.8398V35.3405Z" fill="white"/>
</svg>
