<svg width="61" height="21" fill="none" xmlns="http://www.w3.org/2000/svg"><path d="M54.24 10.845c0 1.227-.243 2.288-.73 3.182a5.18 5.18 0 0 1-2.007 2.068c-.85.485-1.82.727-2.912.727-1.092 0-2.063-.242-2.913-.727a5.18 5.18 0 0 1-2.006-2.068c-.488-.894-.732-1.955-.732-3.182 0-1.227.244-2.288.732-3.182a5.18 5.18 0 0 1 2.006-2.068c.85-.485 1.82-.727 2.913-.727 1.091 0 2.062.242 2.912.727a5.18 5.18 0 0 1 2.007 2.068c.487.894.73 1.955.73 3.182Zm-1.5 0c0-1.008-.185-1.858-.556-2.551-.366-.694-.864-1.218-1.493-1.574-.625-.356-1.325-.534-2.1-.534-.775 0-1.477.178-2.107.534-.625.356-1.123.88-1.494 1.574-.366.693-.55 1.543-.55 2.55 0 1.008.184 1.859.55 2.552.371.693.87 1.218 1.494 1.574.63.356 1.332.534 2.107.534.775 0 1.475-.178 2.1-.534.629-.356 1.127-.88 1.493-1.574.371-.693.557-1.544.557-2.551ZM39.11 8.663a3.959 3.959 0 0 0-.543-1.028 3.314 3.314 0 0 0-.794-.785 3.457 3.457 0 0 0-1.038-.494 4.517 4.517 0 0 0-1.274-.17c-.759 0-1.448.178-2.07.534-.62.356-1.114.88-1.48 1.574-.367.693-.55 1.543-.55 2.55 0 1.008.185 1.859.556 2.552.37.693.873 1.218 1.506 1.574.633.356 1.346.534 2.137.534.734 0 1.38-.142 1.938-.426.563-.288 1-.693 1.313-1.216.316-.527.475-1.146.475-1.858l.475.09h-3.85v-1.25h4.875v1.25c0 .96-.225 1.793-.675 2.5a4.488 4.488 0 0 1-1.85 1.649c-.784.386-1.684.58-2.7.58-1.134 0-2.13-.243-2.988-.728a5.085 5.085 0 0 1-2-2.068c-.475-.894-.713-1.955-.713-3.182 0-.92.136-1.748.407-2.483a5.389 5.389 0 0 1 1.162-1.887 5.08 5.08 0 0 1 1.775-1.193c.684-.276 1.436-.414 2.257-.414.675 0 1.304.092 1.887.278.588.182 1.11.441 1.569.778.462.334.848.733 1.156 1.2.309.461.521.975.638 1.539h-1.6ZM27.754 10.845c0 1.227-.244 2.288-.731 3.182a5.18 5.18 0 0 1-2.007 2.068c-.85.485-1.82.727-2.912.727-1.092 0-2.063-.242-2.913-.727a5.18 5.18 0 0 1-2.006-2.068c-.488-.894-.731-1.955-.731-3.182 0-1.227.243-2.288.73-3.182a5.18 5.18 0 0 1 2.007-2.068c.85-.485 1.821-.727 2.913-.727 1.091 0 2.062.242 2.912.727a5.18 5.18 0 0 1 2.007 2.068c.487.894.731 1.955.731 3.182Zm-1.5 0c0-1.008-.186-1.858-.556-2.551-.367-.694-.865-1.218-1.494-1.574-.625-.356-1.325-.534-2.1-.534-.775 0-1.477.178-2.107.534-.625.356-1.122.88-1.493 1.574-.367.693-.55 1.543-.55 2.55 0 1.008.183 1.859.55 2.552.37.693.868 1.218 1.493 1.574.63.356 1.332.534 2.107.534.775 0 1.475-.178 2.1-.534.63-.356 1.127-.88 1.494-1.574.37-.693.556-1.544.556-2.551ZM7.552 16.663V5.027h1.55v10.386h5.95v1.25h-7.5Z" fill="#000"/></svg>