<svg width="56" height="44" fill="none" xmlns="http://www.w3.org/2000/svg"><path fill-rule="evenodd" clip-rule="evenodd" d="M48.75 43.793H38.686c-3.873 0-7.04-3.22-7.04-7.158 0-14.729-3.701-30.908 14.054-35.527 8.043-2.09 10.14 6.917 1.586 7.538-5.218.38-6.24 3.809-6.399 8.988h8.071c3.874 0 7.041 3.22 7.041 7.159v11.624c0 4.059-3.263 7.376-7.25 7.376Zm-31.327 0H7.361c-3.873 0-7.04-3.22-7.04-7.158C.32 21.906-3.38 5.727 14.374 1.108c8.048-2.094 10.144 6.913 1.586 7.538-5.218.38-6.24 3.809-6.399 8.988h8.076c3.873 0 7.04 3.22 7.04 7.159v11.624c-.004 4.059-3.267 7.376-7.255 7.376Z" fill="#5fff50"/></svg>