<svg xmlns="http://www.w3.org/2000/svg" shape-rendering="geometricPrecision" text-rendering="geometricPrecision" image-rendering="optimizeQuality" fill-rule="evenodd" clip-rule="evenodd" viewBox="0 0 477 511.733"><path d="M40.274 428.201V206.044c-8.189 3.15-15.849 3.22-22.211 1.046-4.969-1.678-9.165-4.684-12.249-8.57-3.071-3.877-5.031-8.602-5.63-13.815-.91-8.082 1.505-17.213 8.396-25.783.351-.418.735-.839 1.19-1.186L209.369 1.934a7.308 7.308 0 019.442-.392l200.054 155.532c.314.24.595.488.872.802 9.272 9.967 11.579 21.025 9.339 30.363a28.313 28.313 0 01-6.362 12.174 27.662 27.662 0 01-11.331 7.661c-7.003 2.517-15.325 2.447-23.753-1.542v201.099l.14.021c13.667 2.129 28.801-1.008 44.538-8.226 11.162-5.118 22.625-12.311 34.088-21.153l9.64 12.484c-12.364 9.537-24.857 17.354-37.18 23.005-18.474 8.474-36.617 12.095-53.5 9.467-17.263-2.687-32.918-11.766-45.939-28.648a109.16 109.16 0 01-7.107-10.455c-8.887 13.799-20.508 23.82-33.471 30.297l-.451.24c-11.868 5.837-24.853 8.681-37.883 8.731a91.44 91.44 0 01-9.326-.443c-21.004-1.049-45.323-13.36-59.651-29.862a91.023 91.023 0 01-7.429-9.347c-12.505 16.432-34.703 32.19-59.461 41.562-26.387 9.983-56.031 12.972-80.54 2.236l-3.824.661zm10.727 59.259c19.938 8.744 44.902 5.99 67.514-2.563 26.771-10.123 49.71-27.994 57.073-44.459 2.129-4.771 7.726-6.912 12.496-4.783a9.417 9.417 0 014.771 4.762c8.127 16.345 21.471 28.218 36.77 34.968 9.814 4.328 20.397 6.553 30.884 6.515 10.405-.037 20.769-2.315 30.235-6.965 13.559-6.668 25.37-18.367 32.964-35.584 2.108-4.792 7.705-6.966 12.496-4.858a9.47 9.47 0 015.036 5.287c3.621 7.809 7.614 14.465 11.913 20.042 10.108 13.104 21.972 20.111 34.853 22.116 13.344 2.079 28.168-1.005 43.637-8.103 11.058-5.072 22.422-12.203 33.79-20.971L477 467.845c-12.46 9.611-25.064 17.495-37.495 23.195-18.742 8.599-37.184 12.261-54.393 9.583-17.66-2.753-33.658-12.022-46.94-29.235a107.666 107.666 0 01-5.907-8.491c-8.975 13.15-20.463 22.749-33.211 29.019-12.084 5.941-25.296 8.843-38.545 8.892-13.166.05-26.369-2.707-38.523-8.069-14.688-6.478-27.953-16.771-37.953-30.524-12.902 16.056-34.675 31.268-58.845 40.408-26.738 10.116-56.816 13.13-81.752 2.191l7.565-17.354zm168.877-337.124v44.633h41.863v-.132c0-12.86-5.262-22.529-13.745-31.012-7.391-7.4-17.226-12.348-28.118-13.489zm0 54.489v32.764h41.863v-32.764h-41.863zm-9.859 32.736v-32.736h-41.86v32.764h41.86v-.028zm0-42.592v-44.633c-10.914 1.162-20.72 6.089-28.115 13.489-8.478 8.483-13.745 18.152-13.745 31.012v.132h41.86zm4.931-54.753c15.589 0 29.747 6.383 39.995 16.627 10.273 10.272 16.626 22.409 16.626 37.973v52.583H158.304v-52.583c0-15.592 6.379-27.726 16.626-37.973 10.269-10.244 24.436-16.627 40.02-16.627zM113.183 412.617c.632-29.049 9.285-56.547 24.216-79.879 13.675-21.359 34.753-40.825 58.796-53.434 28.726-15.068 69.172-23.005 96.951-1.79 28.83 21.984 24.551 59.238-4.039 79.734-6.556 4.696-14.311 7.672-22.227 8.437-6.457.629-13.001-.223-19.095-2.823-6.13-2.617-11.74-6.941-16.246-13.233-5.233-7.308-8.978-17.308-10.247-30.404a6.886 6.886 0 016.204-7.499c3.779-.36 7.135 2.422 7.491 6.201 1.008 10.425 3.844 18.189 7.771 23.666 2.965 4.142 6.553 6.945 10.418 8.599 3.915 1.666 8.168 2.207 12.414 1.794 5.424-.521 10.831-2.625 15.481-5.961 21.004-15.052 25.221-41.157 3.717-57.564-83.07-45.159-121.16 83.243-41.252 117.318a76.696 76.696 0 0016.969 1.857c10.616-.038 21.207-2.361 30.897-7.127l.409-.186c13.72-6.85 25.659-18.751 33.344-36.176 1.757-3.989 6.424-5.804 10.413-4.047a7.892 7.892 0 014.192 4.403c3.683 7.953 7.759 14.754 12.141 20.438 4.981 6.457 10.388 11.475 16.134 15.175V197.929c0-3.534-137.223-112.007-152.374-123.801C199.61 86.336 59.865 193.94 59.865 198.487v217.83c16.597 4.237 35.485 2.141 53.318-3.7zM388.047 17.974v78.023l-60.065-39.632V17.974h60.065z"/></svg>