<?xml version="1.0" encoding="UTF-8" standalone="no"?>
<svg
   version="1.1"
   id="Layer_1"
   x="0px"
   y="0px"
   viewBox="0 0 92.25 122.88"
   style="enable-background:new 0 0 92.25 122.88"
   xml:space="preserve"
   sodipodi:docname="address_icon.svg"
   inkscape:version="1.1.2 (0a00cf5339, 2022-02-04)"
   xmlns:inkscape="http://www.inkscape.org/namespaces/inkscape"
   xmlns:sodipodi="http://sodipodi.sourceforge.net/DTD/sodipodi-0.dtd"
   xmlns="http://www.w3.org/2000/svg"
   xmlns:svg="http://www.w3.org/2000/svg"><defs
     id="defs11" /><sodipodi:namedview
     id="namedview9"
     pagecolor="#ffffff"
     bordercolor="#666666"
     borderopacity="1.0"
     inkscape:pageshadow="2"
     inkscape:pageopacity="0.0"
     inkscape:pagecheckerboard="0"
     showgrid="false"
     inkscape:zoom="6.3639324"
     inkscape:cx="46.119283"
     inkscape:cy="61.518566"
     inkscape:window-width="1920"
     inkscape:window-height="958"
     inkscape:window-x="0"
     inkscape:window-y="0"
     inkscape:window-maximized="1"
     inkscape:current-layer="g6" /><style
     type="text/css"
     id="style2">.st0{fill-rule:evenodd;clip-rule:evenodd;}</style><g
     id="g6"><path
       class="st0"
       d="M68.51,106.28c-5.59,6.13-12.1,11.62-19.41,16.06c-0.9,0.66-2.12,0.74-3.12,0.1 c-10.8-6.87-19.87-15.12-27-24.09C9.14,86.01,2.95,72.33,0.83,59.15c-2.16-13.36-0.14-26.22,6.51-36.67 c2.62-4.13,5.97-7.89,10.05-11.14C26.77,3.87,37.48-0.08,48.16,0c10.28,0.08,20.43,3.91,29.2,11.92c3.08,2.8,5.67,6.01,7.79,9.49 c7.15,11.78,8.69,26.8,5.55,42.02c-3.1,15.04-10.8,30.32-22.19,42.82V106.28L68.51,106.28z M46.12,23.76 c12.68,0,22.95,10.28,22.95,22.95c0,12.68-10.28,22.95-22.95,22.95c-12.68,0-22.95-10.27-22.95-22.95 C23.16,34.03,33.44,23.76,46.12,23.76L46.12,23.76z"
       id="path4"
       style="fill:#ffffff" /></g></svg>
