<svg width="162" height="163" fill="none" xmlns="http://www.w3.org/2000/svg"><g clip-path="url(#a)"><circle cx="81" cy="81.793" r="74" fill="#F8F8F8"/><path d="M81 .793c22.367 0 42.617 9.067 57.275 23.725C152.933 39.177 162 59.427 162 81.793c0 22.367-9.067 42.617-23.725 57.276-14.658 14.658-34.908 23.724-57.275 23.724-22.367 0-42.617-9.066-57.275-23.724C9.067 124.41 0 104.16 0 81.794c0-22.367 9.067-42.617 23.725-57.276C38.383 9.86 58.633.793 81 .793ZM65.379 100.96c-.314-.407.82-3.202 1.09-3.653-3.077-2.738-5.508-5.5-6.026-11.182l-.33.007a4.456 4.456 0 0 1-2.184-.578c-1.101-.626-1.876-1.702-2.4-2.915-1.107-2.544-4.755-10.99.804-10.323-3.108-5.805 3.926-15.72-8.206-19.388 9.954-12.607 30.956-32.046 46.348-12.547 16.847 1.633 22.102 21.654 10.758 32.62a4.203 4.203 0 0 1 1.845.474c2.109 1.13 2.178 3.58 1.624 5.638-.549 1.717-1.245 2.88-1.902 4.555-.799 2.261-1.966 2.682-4.222 2.439-.115 5.59-2.699 8.335-6.176 11.62l.951 3.223c-4.662 9.891-24.033 10.289-31.974.01Zm-40.461 24.568c3.82-16.305 14.446-10.566 34.911-23.372 7.272 15.173 36.825 16.275 42.886 0 17.513 11.196 31.314 6.621 34.791 22.825 9.165-11.973 14.611-26.944 14.611-43.188 0-19.638-7.96-37.418-20.829-50.287-12.87-12.87-30.649-20.83-50.288-20.83-19.639 0-37.418 7.96-50.288 20.83C17.843 44.376 9.883 62.155 9.883 81.793c0 16.492 5.615 31.672 15.035 43.735Z" fill="#313131"/></g><defs><clipPath id="a"><path fill="#fff" transform="translate(0 .793)" d="M0 0h162v162H0z"/></clipPath></defs></svg>