<svg width="66" height="60" viewBox="0 0 66 60" fill="none" xmlns="http://www.w3.org/2000/svg">
<g clip-path="url(#clip0_135_578)">
<path d="M1.9017 45.7217C2.40658 45.1162 2.9598 44.6297 3.56136 44.2296C4.76986 43.424 6.13412 42.9969 7.68099 42.7104C7.68099 29.1188 7.68099 15.5325 7.68099 1.94089C1.82113 2.51937 1.85873 7.97441 1.89095 13.0402C1.89632 13.7214 1.9017 14.0782 1.9017 14.2458V45.7217ZM9.56087 16.8409H38.4305V9.63417H9.56087V16.8409ZM36.658 18.2519H9.56087V33.6115H21.1087C20.867 33.2871 20.7166 32.9032 20.6683 32.4815C20.5931 31.7949 20.7972 31.011 21.3773 30.2811C21.4041 30.2433 21.4417 30.2108 21.4793 30.1784L36.658 18.2519ZM25.6258 33.6115H38.4251V23.4312L25.6097 33.4871C25.6204 33.5304 25.6258 33.5736 25.6258 33.6115ZM39.8162 33.6115H51.8958V33.6006C51.8958 33.5574 51.9012 33.5196 51.9066 33.4817L39.8162 23.7827V33.6115ZM56.6009 33.6115H64.1204V9.63417H39.8162V17.3653L56.1175 30.1189C56.1444 30.1406 56.1659 30.1622 56.1927 30.1892C56.9769 31.038 57.1702 31.9841 56.9823 32.7789C56.9071 33.087 56.7782 33.3682 56.6009 33.6115ZM64.1204 35.0225H53.4696V50.2361C53.4696 50.5821 53.1903 50.8632 52.8465 50.8632H24.6805C24.3368 50.8632 24.0575 50.5821 24.0575 50.2361V35.0225H9.56087V43.4997H9.5555C9.5555 43.9593 9.22787 44.3593 8.76058 44.4296C7.12777 44.6837 5.73129 45.0405 4.59261 45.7974C3.50228 46.5219 2.60531 47.6518 1.88021 49.4792C1.78353 51.7931 2.15951 53.7394 3.17464 55.1937C4.19515 56.6589 5.90853 57.6698 8.50277 58.1078H64.1151V35.0225H64.1204ZM51.8958 35.0225H39.8162V49.2791H51.8958V35.0225ZM38.4305 35.0225H25.6312V49.2791H38.4305V35.0225ZM39.8162 18.9494V22.1824L53.62 32.9843C53.6253 32.9897 53.6307 32.9951 53.6414 33.0005C54.1678 33.379 54.6727 33.4439 55.0594 33.3033C55.242 33.2384 55.3978 33.1303 55.5213 32.9897C55.6449 32.8492 55.7362 32.6816 55.7791 32.4923C55.8758 32.0815 55.7577 31.5733 55.3226 31.0813L39.8162 18.9494ZM38.4305 21.8526V18.4358L22.3011 31.1137C21.9735 31.5462 21.8553 31.9787 21.8983 32.341C21.9198 32.5518 21.995 32.7356 22.1131 32.8816C22.2259 33.0276 22.387 33.1411 22.575 33.2006C22.8973 33.3087 23.3162 33.2817 23.7943 33.0546L38.4305 21.8526ZM9.56087 7.74734H64.4696C64.8939 7.74734 65.2752 7.92035 65.5545 8.20148C65.8338 8.48261 66.0057 8.86646 66.0057 9.29357V58.4646C66.0057 58.8863 65.8338 59.2701 65.5545 59.5513L65.5492 59.5567C65.2699 59.8378 64.8885 60.0108 64.4696 60.0108H8.44906C6.1556 60.0108 2.97591 58.1997 1.64925 56.2912C0.349449 54.4314 -0.117836 52.0418 0.0218126 49.2575V14.2458C0.0218126 13.2781 0.0218126 13.1753 0.0218126 13.0456C-0.0211562 6.84988 -0.0641247 0.151379 8.51351 0.00540638C8.55111 0 8.58334 0 8.62093 0C9.14193 0 9.56087 0.421698 9.56087 0.946116V7.74734Z" fill="black"/>
</g>
<defs>
<clipPath id="clip0_135_578">
<rect width="66" height="60" fill="white"/>
</clipPath>
</defs>
</svg>
