<?xml version="1.0" standalone="no"?>
<!DOCTYPE svg PUBLIC "-//W3C//DTD SVG 20010904//EN"
 "http://www.w3.org/TR/2001/REC-SVG-20010904/DTD/svg10.dtd">
<svg version="1.0" xmlns="http://www.w3.org/2000/svg"
 width="512.000000pt" height="512.000000pt" viewBox="0 0 512.000000 512.000000"
 preserveAspectRatio="xMidYMid meet">

<g transform="translate(0.000000,512.000000) scale(0.100000,-0.100000)"
fill="#000000" stroke="none">
<path d="M302 3715 l3 -1405 28 -27 c27 -27 31 -28 152 -31 l125 -4 2 -1091
c3 -1074 3 -1092 23 -1119 11 -15 29 -29 40 -32 11 -3 861 -6 1889 -6 1853 0
1869 0 1901 20 21 13 35 31 39 51 3 17 6 515 6 1105 l0 1074 113 0 c128 0 154
9 179 60 17 33 18 122 18 1423 l0 1387 -110 0 -110 0 0 -1330 0 -1330 -300 0
-300 0 -2 841 -3 841 -33 29 -33 29 -609 -2 -609 -3 -23 -23 -23 -23 -3 -844
-2 -845 -1070 0 -1070 0 0 1330 0 1330 -110 0 -110 0 2 -1405z m3478 -490 l0
-765 -455 0 -455 0 0 765 0 765 455 0 455 0 0 -765z m520 -1995 l0 -1020 -710
0 -710 0 0 155 0 155 -205 0 -205 0 0 205 0 205 -205 0 -205 0 0 205 0 205
-205 0 -205 0 0 205 0 205 -205 0 -205 0 0 205 0 205 -210 0 -210 0 0 45 0 45
1740 0 1740 0 0 -1020z m-3290 500 l0 -200 205 0 205 0 0 -205 0 -205 205 0
205 0 0 -205 0 -205 205 0 205 0 0 -205 0 -205 205 0 205 0 0 -45 0 -45 -915
0 -915 0 0 860 0 860 95 0 95 0 0 -200z"/>
<path d="M1158 5091 l-33 -29 0 -456 0 -456 28 -27 27 -28 454 0 c440 0 455 1
476 20 49 43 50 58 50 487 0 245 -4 417 -10 440 -6 20 -22 46 -37 58 -25 19
-38 20 -474 20 l-449 0 -32 -29z m782 -481 l0 -300 -300 0 -300 0 0 300 0 300
300 0 300 0 0 -300z"/>
</g>
</svg>
