<svg width="199" height="103" viewBox="0 0 199 103" fill="none" xmlns="http://www.w3.org/2000/svg">
<path d="M0 15.3077V20.9772L60.6638 5.66952L137.202 24.3789H160.447L60.6638 0L0 15.3077Z" fill="#FF891F"/>
<path d="M116.792 10.7721L105.453 7.93732L137.769 0L199 15.3077V20.9772L137.769 5.66952L116.792 10.7721Z" fill="#FF891F"/>
<path d="M174.031 54.6179H164.402V47.1994C164.402 45.0423 164.295 43.7007 164.081 43.1745C163.883 42.6308 163.433 42.359 162.732 42.359C161.939 42.359 161.436 42.6835 161.222 43.3324C161.009 43.9813 160.902 45.3843 160.902 47.5414V67.324C160.902 69.3934 161.009 70.7439 161.222 71.3752C161.436 72.0066 161.916 72.3223 162.663 72.3223C163.38 72.3223 163.845 72.0066 164.058 71.3752C164.287 70.7439 164.402 69.2619 164.402 66.9294V61.5892H174.031V63.2465C174.031 67.6484 173.757 70.7702 173.208 72.6116C172.674 74.4531 171.477 76.0666 169.617 77.452C167.771 78.8375 165.492 79.5303 162.778 79.5303C159.957 79.5303 157.631 78.9427 155.801 77.7677C153.971 76.5927 152.759 74.9705 152.165 72.901C151.57 70.814 151.272 67.6835 151.272 63.5095V51.0665C151.272 47.9974 151.364 45.7 151.547 44.1742C151.73 42.6308 152.271 41.1489 153.171 39.7284C154.086 38.3078 155.344 37.1941 156.945 36.3874C158.561 35.5631 160.414 35.151 162.503 35.151C165.339 35.151 167.68 35.7824 169.525 37.0451C171.37 38.3078 172.582 39.8862 173.162 41.7803C173.741 43.6568 174.031 46.5856 174.031 50.5667V54.6179Z" fill="black"/>
<path d="M148.997 35.151V79.5303H140.063L134.761 59.3554V79.5303H126.238V35.151H134.761L140.475 55.134V35.151H148.997Z" fill="black"/>
<path d="M122.824 35.151V79.5303H113.721V35.151H122.824Z" fill="black"/>
<rect x="176.307" y="70.4268" width="9.10344" height="9.10344" fill="black"/>
<path d="M88.6863 54.6179H79.0568V47.1994C79.0568 45.0423 78.9501 43.7007 78.7366 43.1745C78.5384 42.6308 78.0885 42.359 77.3871 42.359C76.5942 42.359 76.091 42.6835 75.8775 43.3324C75.664 43.9813 75.5573 45.3843 75.5573 47.5414V67.324C75.5573 69.3934 75.664 70.7439 75.8775 71.3752C76.091 72.0066 76.5713 72.3223 77.3185 72.3223C78.0352 72.3223 78.5002 72.0066 78.7137 71.3752C78.9425 70.7439 79.0568 69.2619 79.0568 66.9294V61.5892H88.6863V63.2465C88.6863 67.6484 88.4119 70.7702 87.8629 72.6116C87.3292 74.4531 86.1322 76.0666 84.2718 77.452C82.4268 78.8375 80.1471 79.5303 77.4328 79.5303C74.6118 79.5303 72.2864 78.9427 70.4566 77.7677C68.6267 76.5927 67.4145 74.9705 66.8198 72.901C66.2251 70.814 65.9277 67.6835 65.9277 63.5095V51.0665C65.9277 47.9974 66.0192 45.7 66.2022 44.1742C66.3852 42.6308 66.9265 41.1489 67.8262 39.7284C68.7411 38.3078 69.9991 37.1941 71.6002 36.3874C73.2166 35.5631 75.0693 35.151 77.1584 35.151C79.9946 35.151 82.3353 35.7824 84.1804 37.0451C86.0254 38.3078 87.2377 39.8862 87.8172 41.7803C88.3966 43.6568 88.6863 46.5856 88.6863 50.5667V54.6179Z" fill="black"/>
<path d="M40.8926 35.151H47.7468C52.3163 35.151 55.406 35.3612 57.0161 35.7815C58.6415 36.2018 59.9602 37.28 60.9722 39.016C61.9996 40.7338 62.5132 43.4841 62.5132 47.2669C62.5132 50.7207 62.1529 53.0416 61.4322 54.2294C60.7115 55.4173 59.2931 56.13 57.1771 56.3675C59.0938 56.934 60.3818 57.6924 61.0412 58.6427C61.7006 59.5929 62.1069 60.4701 62.2602 61.2742C62.4289 62.06 62.5132 64.2438 62.5132 67.8255V79.5303H53.52V64.7829C53.52 62.4072 53.359 60.9361 53.037 60.3696C52.7303 59.8031 51.9099 59.5198 50.5759 59.5198V79.5303H40.8926V35.151ZM50.5759 42.744V52.6121C51.6646 52.6121 52.4236 52.4385 52.8529 52.0913C53.2976 51.7258 53.52 50.5654 53.52 48.6101V46.1704C53.52 44.7633 53.3053 43.8405 52.8759 43.4019C52.4619 42.9633 51.6952 42.744 50.5759 42.744Z" fill="black"/>
<path d="M20.4102 35.151H38.617V44.0323H31.1606V52.4477H37.7999V60.8904H31.1606V79.5303H20.4102V35.151Z" fill="black"/>
<path d="M21.0913 99.4074V90.1652H24.5825C25.7039 90.1652 26.5778 90.4234 27.2041 90.9396C27.8346 91.4559 28.1499 92.188 28.1499 93.1359C28.1499 94.0881 27.8346 94.8307 27.2041 95.364C26.5736 95.8929 25.6997 96.1574 24.5825 96.1574H23.2368V99.4074H21.0913ZM23.2368 94.6086H24.5127C25.0544 94.6086 25.4373 94.4795 25.6616 94.2214C25.8901 93.9632 26.0065 93.6057 26.0107 93.1486C26.0107 92.7001 25.8965 92.3509 25.668 92.1013C25.4437 91.8516 25.0586 91.7267 24.5127 91.7267H23.2368V94.6086ZM26.1377 99.4074L23.9858 95.1481L26.29 95.091L28.5498 99.4074H26.1377ZM28.7057 96.1257V95.9225C28.7057 94.8773 29.0294 94.0394 29.6769 93.4089C30.3244 92.7741 31.1496 92.4567 32.1525 92.4567C33.1639 92.4567 33.9594 92.7551 34.5392 93.3517C35.1232 93.9442 35.4152 94.7652 35.4152 95.8146V96.5446H30.153V95.2941H33.3585V95.1608C33.3585 94.8265 33.2527 94.5366 33.0412 94.2912C32.8338 94.0415 32.5291 93.9167 32.1271 93.9167C31.6912 93.9167 31.3548 94.0838 31.1178 94.4182C30.8808 94.7482 30.7623 95.2116 30.7623 95.8083V96.2336C30.7623 96.8133 30.8893 97.2704 31.1432 97.6047C31.4013 97.939 31.7759 98.1061 32.2667 98.1061C32.6137 98.1061 32.9163 98.0173 33.1745 97.8395C33.4326 97.6618 33.6399 97.4587 33.7965 97.2302L35.2628 98.1887C35.0512 98.6034 34.681 98.944 34.152 99.2106C33.6273 99.473 33.0115 99.6042 32.3048 99.6042C31.1876 99.6042 30.3074 99.2868 29.6642 98.652C29.0252 98.0173 28.7057 97.1752 28.7057 96.1257ZM36.1868 99.4074V92.6472H38.1736L38.2117 93.3898H38.2498C38.4106 93.1317 38.6624 92.9222 39.0052 92.7614C39.3522 92.5964 39.733 92.5139 40.1477 92.5139C40.8544 92.5139 41.4321 92.7149 41.8806 93.1169C42.3334 93.5147 42.5598 94.2214 42.5598 95.237V99.4074H40.4778V95.1672C40.4778 94.7652 40.3932 94.4837 40.2239 94.3229C40.0546 94.1621 39.8113 94.0817 39.4939 94.0817C39.24 94.0817 39.0009 94.1558 38.7766 94.3039C38.5524 94.452 38.381 94.6636 38.2625 94.9387V99.4074H36.1868ZM43.3696 96.1257V95.9225C43.3696 94.8561 43.7017 94.0119 44.3661 93.3898C45.0305 92.7678 45.8938 92.4567 46.956 92.4567C48.0139 92.4567 48.8751 92.7678 49.5395 93.3898C50.2039 94.0119 50.5361 94.8561 50.5361 95.9225V96.1257C50.5361 97.1921 50.2039 98.0384 49.5395 98.6647C48.8751 99.2868 48.0139 99.5978 46.956 99.5978C45.8938 99.5978 45.0305 99.2868 44.3661 98.6647C43.7017 98.0384 43.3696 97.1921 43.3696 96.1257ZM45.5024 95.8083V96.2463C45.5024 96.8514 45.6293 97.3042 45.8832 97.6047C46.1371 97.9009 46.4947 98.049 46.956 98.049C47.413 98.049 47.7664 97.9009 48.016 97.6047C48.2699 97.3042 48.3969 96.8493 48.3969 96.2399V95.8083C48.3969 95.2031 48.2678 94.7525 48.0097 94.4562C47.7515 94.1558 47.4003 94.0056 46.956 94.0056C46.5032 94.0056 46.1477 94.1558 45.8896 94.4562C45.6314 94.7525 45.5024 95.2031 45.5024 95.8083ZM50.3809 92.6472H52.5074L53.8531 96.4938C53.9081 96.6546 53.9483 96.7985 53.9737 96.9255C53.9991 97.0524 54.0202 97.1857 54.0372 97.3254H54.0753C54.0922 97.1815 54.1133 97.0482 54.1387 96.9255C54.1684 96.8028 54.2086 96.6589 54.2593 96.4938L55.5987 92.6472H57.4776L54.8941 99.4074H52.9708L50.3809 92.6472ZM57.3415 97.4206C57.3415 96.6546 57.642 96.0834 58.2429 95.7067C58.8438 95.3259 59.597 95.1333 60.5026 95.1291H61.7595V94.7482C61.7595 94.4774 61.6854 94.2573 61.5373 94.0881C61.3892 93.9188 61.1289 93.8342 60.7565 93.8342C60.3884 93.8342 60.126 93.9061 59.9694 94.05C59.8171 94.1939 59.7409 94.3716 59.7409 94.5832V94.6911H57.6843V94.5832C57.6843 93.9654 57.9784 93.4575 58.5666 93.0598C59.1548 92.6577 59.9123 92.4567 60.8391 92.4567C61.7743 92.4567 62.5064 92.645 63.0354 93.0217C63.5686 93.3941 63.8352 93.9738 63.8352 94.7609V97.9094C63.8352 98.1802 63.8605 98.4383 63.9113 98.6838C63.9621 98.9292 64.0298 99.1366 64.1145 99.3058V99.4074H62.0642C62.0176 99.3101 61.9753 99.1831 61.9372 99.0266C61.8991 98.87 61.8716 98.7176 61.8547 98.5695C61.732 98.8192 61.4823 99.0414 61.1057 99.236C60.7333 99.4307 60.2699 99.528 59.7155 99.528C59.0469 99.528 58.4841 99.3545 58.0271 99.0075C57.57 98.6563 57.3415 98.1273 57.3415 97.4206ZM59.4299 97.2429C59.4299 97.5137 59.5082 97.7359 59.6647 97.9094C59.8256 98.0786 60.0816 98.1633 60.4328 98.1633C60.8179 98.1633 61.1353 98.0448 61.385 97.8078C61.6346 97.5708 61.7595 97.2809 61.7595 96.9382V96.3542H60.7756C60.3186 96.3542 59.98 96.4304 59.76 96.5827C59.5399 96.735 59.4299 96.9551 59.4299 97.2429ZM64.3211 94.1389V92.6472H68.5741V94.1389H64.3211ZM65.286 97.3254V93.4152L65.2923 93.2311V91.1364H67.3617V97.2809C67.3617 97.5856 67.4167 97.7951 67.5267 97.9094C67.6367 98.0194 67.787 98.0744 67.9774 98.0744C68.0705 98.0744 68.1636 98.0638 68.2567 98.0427C68.354 98.0173 68.445 97.9877 68.5296 97.9538V99.4011C68.4365 99.4518 68.299 99.4963 68.117 99.5344C67.9393 99.5724 67.7468 99.5915 67.5394 99.5915C66.8623 99.5915 66.3164 99.4095 65.9017 99.0456C65.4912 98.6774 65.286 98.104 65.286 97.3254ZM69.2632 99.4074V92.6472H71.3515V99.4074H69.2632ZM69.1045 90.8444C69.1045 90.5397 69.2082 90.2837 69.4155 90.0764C69.6229 89.8648 69.9212 89.759 70.3105 89.759C70.6999 89.759 70.9982 89.8648 71.2055 90.0764C71.4129 90.2837 71.5166 90.5397 71.5166 90.8444C71.5166 91.1576 71.4108 91.4199 71.1992 91.6315C70.9918 91.8389 70.6935 91.9426 70.3042 91.9426C69.9191 91.9426 69.6229 91.8389 69.4155 91.6315C69.2082 91.4199 69.1045 91.1576 69.1045 90.8444ZM72.2438 96.1257V95.9225C72.2438 94.8561 72.576 94.0119 73.2404 93.3898C73.9047 92.7678 74.768 92.4567 75.8302 92.4567C76.8881 92.4567 77.7493 92.7678 78.4137 93.3898C79.0781 94.0119 79.4103 94.8561 79.4103 95.9225V96.1257C79.4103 97.1921 79.0781 98.0384 78.4137 98.6647C77.7493 99.2868 76.8881 99.5978 75.8302 99.5978C74.768 99.5978 73.9047 99.2868 73.2404 98.6647C72.576 98.0384 72.2438 97.1921 72.2438 96.1257ZM74.3766 95.8083V96.2463C74.3766 96.8514 74.5035 97.3042 74.7574 97.6047C75.0113 97.9009 75.3689 98.049 75.8302 98.049C76.2872 98.049 76.6406 97.9009 76.8903 97.6047C77.1442 97.3042 77.2711 96.8493 77.2711 96.2399V95.8083C77.2711 95.2031 77.142 94.7525 76.8839 94.4562C76.6258 94.1558 76.2745 94.0056 75.8302 94.0056C75.3774 94.0056 75.0219 94.1558 74.7638 94.4562C74.5057 94.7525 74.3766 95.2031 74.3766 95.8083ZM80.2898 99.4074V92.6472H82.2766L82.3147 93.3898H82.3528C82.5136 93.1317 82.7654 92.9222 83.1082 92.7614C83.4552 92.5964 83.836 92.5139 84.2507 92.5139C84.9574 92.5139 85.5351 92.7149 85.9837 93.1169C86.4365 93.5147 86.6629 94.2214 86.6629 95.237V99.4074H84.5808V95.1672C84.5808 94.7652 84.4962 94.4837 84.3269 94.3229C84.1576 94.1621 83.9143 94.0817 83.5969 94.0817C83.343 94.0817 83.1039 94.1558 82.8797 94.3039C82.6554 94.452 82.484 94.6636 82.3655 94.9387V99.4074H80.2898ZM87.4154 97.2429L89.4594 97.2492V97.3698C89.4594 97.6703 89.5588 97.8882 89.7577 98.0236C89.9608 98.159 90.2359 98.2267 90.5829 98.2267C90.9384 98.2267 91.2007 98.1633 91.37 98.0363C91.5435 97.9094 91.6303 97.7359 91.6303 97.5158C91.6303 97.2915 91.5351 97.1307 91.3446 97.0334C91.1542 96.9318 90.676 96.807 89.9101 96.6589C89.0891 96.5023 88.5009 96.2505 88.1454 95.9035C87.7942 95.5565 87.6186 95.1143 87.6186 94.5768C87.6186 93.9167 87.8852 93.3983 88.4184 93.0217C88.9558 92.645 89.6815 92.4567 90.5956 92.4567C91.5054 92.4567 92.2333 92.6556 92.7792 93.0534C93.3251 93.447 93.598 93.9823 93.598 94.6594V94.7482H91.5604V94.634C91.5604 94.3885 91.48 94.1939 91.3192 94.05C91.1627 93.9061 90.9193 93.8342 90.5893 93.8342C90.2592 93.8342 90.0201 93.8892 89.872 93.9992C89.7281 94.1092 89.6562 94.2552 89.6562 94.4372C89.6562 94.6234 89.7471 94.7736 89.9291 94.8879C90.1153 94.9979 90.602 95.127 91.3891 95.2751C92.2016 95.4274 92.7898 95.6708 93.1537 96.0051C93.5219 96.3394 93.706 96.7922 93.706 97.3635C93.706 98.0659 93.4394 98.614 92.9062 99.0075C92.3772 99.4011 91.6049 99.5978 90.5893 99.5978C89.5821 99.5978 88.8013 99.4032 88.247 99.0139C87.6926 98.6203 87.4154 98.0575 87.4154 97.3254V97.2429ZM97.0265 96.9953C97.0265 96.2886 97.2529 95.7088 97.7057 95.256C98.1585 94.8032 98.7108 94.3949 99.3625 94.0309L100.74 93.2819C101.023 93.1042 101.21 92.9391 101.299 92.7868C101.387 92.6345 101.432 92.4504 101.432 92.2346C101.432 91.9595 101.37 91.7564 101.248 91.6252C101.125 91.4898 100.935 91.4221 100.676 91.4221C100.423 91.4221 100.228 91.5003 100.092 91.6569C99.9613 91.8093 99.8957 92.0209 99.8957 92.2917C99.8957 92.5414 99.9634 92.7762 100.099 92.9963C100.234 93.2163 100.463 93.5379 100.784 93.9611L105.355 99.4074H103.006L99.28 94.9767C98.7468 94.3716 98.3638 93.8807 98.131 93.5041C97.9025 93.1275 97.7883 92.7254 97.7883 92.298C97.7883 91.5913 98.057 91.0285 98.5944 90.6096C99.1318 90.1864 99.8259 89.9748 100.676 89.9748C101.531 89.9748 102.21 90.1737 102.714 90.5715C103.218 90.9693 103.469 91.5046 103.469 92.1774C103.469 92.7106 103.34 93.1507 103.082 93.4977C102.824 93.8447 102.435 94.1642 101.914 94.4562L100.549 95.1926C100.063 95.4676 99.7116 95.7342 99.4958 95.9924C99.2842 96.2463 99.1784 96.5446 99.1784 96.8874C99.1784 97.2429 99.2821 97.5243 99.4894 97.7316C99.701 97.9348 99.9994 98.0363 100.384 98.0363C100.998 98.0363 101.55 97.7782 102.041 97.2619C102.536 96.7456 102.79 96.022 102.803 95.091H104.834C104.834 96.3351 104.398 97.3867 103.527 98.2458C102.659 99.1048 101.593 99.5344 100.327 99.5344C99.2694 99.5344 98.4548 99.2932 97.8835 98.8107C97.3122 98.3283 97.0265 97.7232 97.0265 96.9953ZM108.498 95.072V94.5007C108.498 93.0196 108.889 91.896 109.672 91.1301C110.459 90.3641 111.485 89.9811 112.75 89.9811C113.952 89.9811 114.902 90.2879 115.601 90.9016C116.299 91.5109 116.654 92.3044 116.667 93.2819V93.447H114.496L114.49 93.2502C114.485 92.7212 114.339 92.3128 114.052 92.0251C113.764 91.7331 113.324 91.5871 112.731 91.5871C112.122 91.5871 111.633 91.7966 111.265 92.2155C110.897 92.6345 110.713 93.32 110.713 94.2722V95.3005C110.713 96.2018 110.893 96.8747 111.252 97.319C111.612 97.7634 112.114 97.9855 112.757 97.9855C113.332 97.9855 113.76 97.8332 114.039 97.5285C114.318 97.2196 114.469 96.8133 114.49 96.3098L114.496 96.132H116.667V96.3098C116.633 97.2746 116.271 98.0638 115.582 98.6774C114.896 99.2868 113.952 99.5915 112.75 99.5915C111.481 99.5915 110.455 99.2064 109.672 98.4362C108.889 97.6618 108.498 96.5404 108.498 95.072ZM117.058 96.1257V95.9225C117.058 94.8561 117.39 94.0119 118.054 93.3898C118.719 92.7678 119.582 92.4567 120.644 92.4567C121.702 92.4567 122.563 92.7678 123.228 93.3898C123.892 94.0119 124.224 94.8561 124.224 95.9225V96.1257C124.224 97.1921 123.892 98.0384 123.228 98.6647C122.563 99.2868 121.702 99.5978 120.644 99.5978C119.582 99.5978 118.719 99.2868 118.054 98.6647C117.39 98.0384 117.058 97.1921 117.058 96.1257ZM119.191 95.8083V96.2463C119.191 96.8514 119.317 97.3042 119.571 97.6047C119.825 97.9009 120.183 98.049 120.644 98.049C121.101 98.049 121.455 97.9009 121.704 97.6047C121.958 97.3042 122.085 96.8493 122.085 96.2399V95.8083C122.085 95.2031 121.956 94.7525 121.698 94.4562C121.44 94.1558 121.088 94.0056 120.644 94.0056C120.191 94.0056 119.836 94.1558 119.578 94.4562C119.32 94.7525 119.191 95.2031 119.191 95.8083ZM125.104 99.4074V92.6472H127.091L127.129 93.3898H127.167C127.328 93.1317 127.579 92.9222 127.922 92.7614C128.269 92.5964 128.65 92.5139 129.065 92.5139C129.771 92.5139 130.349 92.7149 130.798 93.1169C131.25 93.5147 131.477 94.2214 131.477 95.237V99.4074H129.395V95.1672C129.395 94.7652 129.31 94.4837 129.141 94.3229C128.972 94.1621 128.728 94.0817 128.411 94.0817C128.157 94.0817 127.918 94.1558 127.694 94.3039C127.469 94.452 127.298 94.6636 127.179 94.9387V99.4074H125.104ZM132.229 97.2429L134.273 97.2492V97.3698C134.273 97.6703 134.373 97.8882 134.572 98.0236C134.775 98.159 135.05 98.2267 135.397 98.2267C135.752 98.2267 136.015 98.1633 136.184 98.0363C136.357 97.9094 136.444 97.7359 136.444 97.5158C136.444 97.2915 136.349 97.1307 136.159 97.0334C135.968 96.9318 135.49 96.807 134.724 96.6589C133.903 96.5023 133.315 96.2505 132.959 95.9035C132.608 95.5565 132.433 95.1143 132.433 94.5768C132.433 93.9167 132.699 93.3983 133.232 93.0217C133.77 92.645 134.495 92.4567 135.41 92.4567C136.319 92.4567 137.047 92.6556 137.593 93.0534C138.139 93.447 138.412 93.9823 138.412 94.6594V94.7482H136.374V94.634C136.374 94.3885 136.294 94.1939 136.133 94.05C135.977 93.9061 135.733 93.8342 135.403 93.8342C135.073 93.8342 134.834 93.8892 134.686 93.9992C134.542 94.1092 134.47 94.2552 134.47 94.4372C134.47 94.6234 134.561 94.7736 134.743 94.8879C134.929 94.9979 135.416 95.127 136.203 95.2751C137.016 95.4274 137.604 95.6708 137.968 96.0051C138.336 96.3394 138.52 96.7922 138.52 97.3635C138.52 98.0659 138.253 98.614 137.72 99.0075C137.191 99.4011 136.419 99.5978 135.403 99.5978C134.396 99.5978 133.615 99.4032 133.061 99.0139C132.507 98.6203 132.229 98.0575 132.229 97.3254V97.2429ZM138.581 94.1389V92.6472H142.834V94.1389H138.581ZM139.545 97.3254V93.4152L139.552 93.2311V91.1364H141.621V97.2809C141.621 97.5856 141.676 97.7951 141.786 97.9094C141.896 98.0194 142.046 98.0744 142.237 98.0744C142.33 98.0744 142.423 98.0638 142.516 98.0427C142.613 98.0173 142.704 97.9877 142.789 97.9538V99.4011C142.696 99.4518 142.558 99.4963 142.376 99.5344C142.199 99.5724 142.006 99.5915 141.799 99.5915C141.122 99.5915 140.576 99.4095 140.161 99.0456C139.751 98.6774 139.545 98.104 139.545 97.3254ZM143.51 99.4074V92.6472H145.503L145.541 93.3581H145.579C145.702 93.1169 145.878 92.9095 146.106 92.736C146.339 92.5583 146.595 92.4694 146.874 92.4694C146.959 92.4694 147.046 92.48 147.134 92.5012C147.223 92.5223 147.287 92.5414 147.325 92.5583V94.3229C147.253 94.306 147.175 94.2933 147.09 94.2849C147.01 94.2722 146.921 94.2658 146.823 94.2658C146.548 94.2658 146.299 94.3504 146.074 94.5197C145.854 94.6848 145.696 94.8942 145.598 95.1481V99.4074H143.51ZM147.906 96.7097V92.6472H149.988V96.7795C149.988 97.2323 150.077 97.5454 150.255 97.7189C150.437 97.8924 150.676 97.9792 150.972 97.9792C151.247 97.9792 151.492 97.8967 151.708 97.7316C151.928 97.5666 152.091 97.3635 152.197 97.1223V92.6472H154.279V99.4074H152.292L152.254 98.6711H152.216C152.026 98.9419 151.757 99.1556 151.41 99.3122C151.067 99.4645 150.684 99.5407 150.261 99.5407C149.575 99.5407 149.011 99.3228 148.566 98.8869C148.126 98.451 147.906 97.7253 147.906 96.7097ZM155.152 96.1257V95.9225C155.152 94.8519 155.476 94.0077 156.123 93.3898C156.775 92.7678 157.632 92.4567 158.694 92.4567C159.71 92.4567 160.482 92.7043 161.011 93.1994C161.544 93.6903 161.832 94.2743 161.874 94.9514L161.887 95.0783H159.85V94.9894C159.85 94.689 159.75 94.4435 159.551 94.2531C159.357 94.0585 159.065 93.9611 158.675 93.9611C158.218 93.9611 157.871 94.1262 157.634 94.4562C157.401 94.7863 157.285 95.237 157.285 95.8083V96.2463C157.285 96.8176 157.397 97.2682 157.622 97.5983C157.85 97.9284 158.201 98.0934 158.675 98.0934C159.107 98.0934 159.409 97.9898 159.583 97.7824C159.756 97.5708 159.843 97.3275 159.843 97.0524V96.9763H161.881V97.0651C161.881 97.7422 161.604 98.3347 161.049 98.8425C160.495 99.346 159.71 99.5978 158.694 99.5978C157.632 99.5978 156.775 99.2868 156.123 98.6647C155.476 98.0427 155.152 97.1963 155.152 96.1257ZM161.789 94.1389V92.6472H166.042V94.1389H161.789ZM162.754 97.3254V93.4152L162.76 93.2311V91.1364H164.83V97.2809C164.83 97.5856 164.885 97.7951 164.995 97.9094C165.105 98.0194 165.255 98.0744 165.445 98.0744C165.538 98.0744 165.632 98.0638 165.725 98.0427C165.822 98.0173 165.913 97.9877 165.998 97.9538V99.4011C165.905 99.4518 165.767 99.4963 165.585 99.5344C165.407 99.5724 165.215 99.5915 165.007 99.5915C164.33 99.5915 163.784 99.4095 163.37 99.0456C162.959 98.6774 162.754 98.104 162.754 97.3254ZM166.731 99.4074V92.6472H168.82V99.4074H166.731ZM166.572 90.8444C166.572 90.5397 166.676 90.2837 166.884 90.0764C167.091 89.8648 167.389 89.759 167.779 89.759C168.168 89.759 168.466 89.8648 168.674 90.0764C168.881 90.2837 168.985 90.5397 168.985 90.8444C168.985 91.1576 168.879 91.4199 168.667 91.6315C168.46 91.8389 168.162 91.9426 167.772 91.9426C167.387 91.9426 167.091 91.8389 166.884 91.6315C166.676 91.4199 166.572 91.1576 166.572 90.8444ZM169.712 96.1257V95.9225C169.712 94.8561 170.044 94.0119 170.708 93.3898C171.373 92.7678 172.236 92.4567 173.298 92.4567C174.356 92.4567 175.217 92.7678 175.882 93.3898C176.546 94.0119 176.878 94.8561 176.878 95.9225V96.1257C176.878 97.1921 176.546 98.0384 175.882 98.6647C175.217 99.2868 174.356 99.5978 173.298 99.5978C172.236 99.5978 171.373 99.2868 170.708 98.6647C170.044 98.0384 169.712 97.1921 169.712 96.1257ZM171.845 95.8083V96.2463C171.845 96.8514 171.972 97.3042 172.225 97.6047C172.479 97.9009 172.837 98.049 173.298 98.049C173.755 98.049 174.109 97.9009 174.358 97.6047C174.612 97.3042 174.739 96.8493 174.739 96.2399V95.8083C174.739 95.2031 174.61 94.7525 174.352 94.4562C174.094 94.1558 173.743 94.0056 173.298 94.0056C172.845 94.0056 172.49 94.1558 172.232 94.4562C171.974 94.7525 171.845 95.2031 171.845 95.8083ZM177.758 99.4074V92.6472H179.745L179.783 93.3898H179.821C179.982 93.1317 180.233 92.9222 180.576 92.7614C180.923 92.5964 181.304 92.5139 181.719 92.5139C182.425 92.5139 183.003 92.7149 183.452 93.1169C183.904 93.5147 184.131 94.2214 184.131 95.237V99.4074H182.049V95.1672C182.049 94.7652 181.964 94.4837 181.795 94.3229C181.626 94.1621 181.382 94.0817 181.065 94.0817C180.811 94.0817 180.572 94.1558 180.348 94.3039C180.123 94.452 179.952 94.6636 179.833 94.9387V99.4074H177.758Z" fill="black"/>
</svg>
