<svg width="243" height="97" viewBox="0 0 243 97" fill="none" xmlns="http://www.w3.org/2000/svg">
<path d="M0 18.5941V25.4808L73.8304 6.88669L166.981 29.6128H195.271L73.8304 0L0 18.5941Z" fill="#FF891F"/>
<path d="M142.141 13.0847L128.341 9.64137L167.671 0L242.191 18.5941V25.4808L167.671 6.88669L142.141 13.0847Z" fill="#FF891F"/>
<path d="M211.803 66.3437H200.083V57.3326C200.083 54.7123 199.953 53.0826 199.693 52.4436C199.452 51.7832 198.905 51.453 198.051 51.453C197.086 51.453 196.474 51.8471 196.214 52.6353C195.954 53.4235 195.824 55.1277 195.824 57.748V81.7776C195.824 84.2914 195.954 85.9317 196.214 86.6986C196.474 87.4655 197.058 87.849 197.967 87.849C198.84 87.849 199.406 87.4655 199.666 86.6986C199.944 85.9317 200.083 84.1316 200.083 81.2983V74.8116H211.803V76.8247C211.803 82.1717 211.469 85.9636 210.801 88.2005C210.151 90.4373 208.694 92.3971 206.43 94.08C204.185 95.763 201.41 96.6044 198.107 96.6044C194.673 96.6044 191.843 95.8908 189.616 94.4635C187.389 93.0362 185.914 91.0657 185.19 88.5519C184.466 86.0169 184.104 82.2143 184.104 77.1442V62.0299C184.104 58.3018 184.216 55.5112 184.439 53.6578C184.661 51.7832 185.32 49.9831 186.415 48.2575C187.528 46.532 189.06 45.1793 191.008 44.1993C192.975 43.1981 195.23 42.6975 197.773 42.6975C201.224 42.6975 204.073 43.4644 206.319 44.9982C208.564 46.532 210.04 48.4493 210.745 50.75C211.45 53.0294 211.803 56.587 211.803 61.4227V66.3437Z" fill="black"/>
<path d="M181.336 42.6975V96.6044H170.463L164.01 72.0982V96.6044H153.638V42.6975H164.01L170.964 66.9706V42.6975H181.336Z" fill="black"/>
<path d="M149.483 42.6975V96.6044H138.403V42.6975H149.483Z" fill="black"/>
<rect x="214.572" y="85.5466" width="11.0793" height="11.0578" fill="black"/>
<path d="M107.935 66.3437H96.216V57.3326C96.216 54.7123 96.086 53.0826 95.8262 52.4436C95.585 51.7832 95.0375 51.453 94.1838 51.453C93.2188 51.453 92.6064 51.8471 92.3466 52.6353C92.0867 53.4235 91.9568 55.1277 91.9568 57.748V81.7776C91.9568 84.2914 92.0867 85.9317 92.3466 86.6986C92.6064 87.4655 93.191 87.849 94.1003 87.849C94.9726 87.849 95.5386 87.4655 95.7984 86.6986C96.0768 85.9317 96.216 84.1316 96.216 81.2983V74.8116H107.935V76.8247C107.935 82.1717 107.601 85.9636 106.933 88.2005C106.284 90.4373 104.827 92.3971 102.563 94.08C100.317 95.763 97.5429 96.6044 94.2395 96.6044C90.8062 96.6044 87.9761 95.8908 85.7491 94.4635C83.5221 93.0362 82.0467 91.0657 81.323 88.5519C80.5992 86.0169 80.2373 82.2143 80.2373 77.1442V62.0299C80.2373 58.3018 80.3487 55.5112 80.5714 53.6578C80.7941 51.7832 81.4529 49.9831 82.5478 48.2575C83.6613 46.532 85.1924 45.1793 87.141 44.1993C89.1081 43.1981 91.363 42.6975 93.9055 42.6975C97.3573 42.6975 100.206 43.4644 102.452 44.9982C104.697 46.532 106.172 48.4493 106.878 50.75C107.583 53.0294 107.935 56.587 107.935 61.4227V66.3437Z" fill="black"/>
<path d="M49.7686 42.6975H58.1104C63.6717 42.6975 67.432 42.9528 69.3915 43.4633C71.3697 43.9738 72.9746 45.2835 74.2063 47.3923C75.4566 49.4789 76.0818 52.8196 76.0818 57.4145C76.0818 61.6099 75.6433 64.429 74.7662 65.8718C73.889 67.3147 72.1628 68.1804 69.5875 68.4689C71.9202 69.1571 73.4878 70.0783 74.2903 71.2325C75.0927 72.3868 75.5873 73.4523 75.7739 74.429C75.9792 75.3835 76.0818 78.0361 76.0818 82.3869V96.6044H65.1366V78.6909C65.1366 75.8053 64.9407 74.0183 64.5488 73.3302C64.1755 72.6421 63.1771 72.298 61.5535 72.298V96.6044H49.7686V42.6975ZM61.5535 51.9206V63.9073C62.8785 63.9073 63.8023 63.6964 64.3248 63.2747C64.866 62.8307 65.1366 61.4212 65.1366 59.046V56.0827C65.1366 54.3734 64.8754 53.2525 64.3528 52.7197C63.8489 52.187 62.9159 51.9206 61.5535 51.9206Z" fill="black"/>
<path d="M24.8408 42.6975H46.9994V53.4855H37.9246V63.7075H46.0049V73.9628H37.9246V96.6044H24.8408V42.6975Z" fill="black"/>
</svg>
